#N canvas 987 423 520 491 12;
#X obj 99 233 dac~;
#X obj 99 134 osc~ 440;
#X obj 99 183 *~ 0.1;
#X obj 157 184 *~ 0.1;
#X obj 234 26 r host;
#X obj 261 99 route freq;
#X obj 359 85 print incoming;
#X obj 288 173 print setfreq;
#X obj 234 50 route list;
#X connect 1 0 2 0;
#X connect 1 0 3 0;
#X connect 2 0 0 0;
#X connect 3 0 0 1;
#X connect 4 0 8 0;
#X connect 5 0 1 0;
#X connect 5 0 7 0;
#X connect 8 0 5 0;
#X connect 8 0 6 0;
